<?xml version="1.0" encoding="utf-8"?>
<!-- Generator: Adobe Illustrator 22.1.0, SVG Export Plug-In . SVG Version: 6.00 Build 0)  -->
<svg version="1.1" id="Layer_1" xmlns="http://www.w3.org/2000/svg" xmlns:xlink="http://www.w3.org/1999/xlink" x="0px" y="0px"
	 viewBox="0 0 800 800" style="enable-background:new 0 0 800 800;" xml:space="preserve">
<style type="text/css">
	.st0{fill:#4891CE;}
	.st1{fill:#186395;}
	.st2{fill:#1C6493;}
	.st3{fill:#F5831F;}
	.st4{fill:#FFFFFF;}
	.st5{fill:#F58220;}
	.st6{fill:#127BC0;}
	.st7{fill:#020202;}
	.st8{fill:#FBFCFC;}
	.st9{fill:#F9F9FA;}
	.st10{fill:#8B6239;}
	.st11{fill:#454545;}
	.st12{fill:#262525;}
	.st13{fill:#744D25;}
	.st14{fill:#BCC2C6;}
	.st15{fill:#A67C53;}
	.st16{fill:#EAEEEE;}
	.st17{fill:#36302E;}
</style>
<g>
	<path class="st0" d="M301.6,477.8c-20.1-8.7-41-15.7-59.8-27.4c-56.3-35.1-76.6-86.4-55-149.3c29.2-84.8,85.6-144.4,170.8-175.8
		c-1.4-7.7-8.2-10.6-13.6-14.5c-5.6-3.9-11.7-7-19.9-11.9c20.7-5.8,38.4-4.3,57.3,4.2c-1.9-20.7-17.2-27.9-30.4-38.9
		c23.8,3.2,43.1,12.3,60.2,28.5c5.3-12.9-1.1-23.3-3.3-38.1c23.3,18.9,40.1,38.6,50.9,63c4.1,9.2,9.8,14.2,18.7,18.4
		c73.8,35,122,93,146.8,169.8c18.6,57.6-0.5,106.2-50.9,140.5c-20.3,13.8-43.2,22-65.6,31.2c-2.1,4.1-6,5.1-10.1,5.9
		c-15.5,4.4-31.4,7.5-47.4,9.5c-8.5,1.1-19.1,6.2-26.2-1c-4.2-7.6,1.2-18.3,3.6-25.4c6.5-19.2,13.7-38.1,20.7-57.1
		c4.7-12.9,0.4-19.8-12.2-23.1c-22.3-5.9-44.4-6.9-66.5,0.9c-10.2,3.6-13.2,9.5-9.6,20c6.9,19.7,14.6,39,21.2,58.7
		c2.4,7.1,7.2,17.2,3.5,25c-6.8,7.7-17,3-25.5,2c-16.1-2-32-5.1-47.7-9.5C307.6,483,303.7,482,301.6,477.8z"/>
	<path class="st0" d="M347.2,655.4c-2.2-3.1-5-5.6-8.9-6.3c-6.5-0.1-10.4-4.4-14.1-8.9c-34-41.3-39.1-87.3-22.4-136.9
		c1.8-5.4,3.8-11.1,10.2-13.2c25.1,2.7,49.8,7.8,75,9.5c12.5,10.9,16.1,19.5,16.5,37.2c1-6.7,3-13,5.3-19.3
		c2.7-7,5.4-14.1,12.8-17.7c25-2,49.7-7,74.7-9.2c12.5,7.4,15,20.8,17,32.9c7,41,1.9,79.7-25.8,113.2c-5,6-10.2,11-18.2,12.4
		c-2.5,2.1-5.1,4.3-7.6,6.4c-4.9,7.6-12.6,10.9-20.7,13.8c-2.4,1-4.9,1.8-7.5,2.4c-19.4,7.5-38.8,7.6-58.2,0c-2.5-0.6-5-1.4-7.5-2.4
		C359.9,666.4,352.1,663,347.2,655.4z"/>
	<path class="st1" d="M469.4,649c48.5-41.7,52.7-114.1,26.9-156.3c-4.1-4.9-7.2-9.8,0.6-14.2c3.6-0.5,7.1-0.9,10.7-1.4
		c46,51.1,54.7,135,20.7,193.8c-8,13.9-16.1,16.1-28.7,6.4C488.6,668.9,478.3,659.7,469.4,649z"/>
	<path class="st1" d="M312.1,492c-25.1,48-20.5,111.6,26.2,157.1c-7.4,12.1-18.8,20.2-29.8,28.8c-12,9.4-19.9,6.9-27.6-6.2
		c-34.4-58.6-25.8-143.2,20.4-194.4c3.6,0.4,7.1,0.9,10.7,1.4C319.7,483,316.8,487.5,312.1,492z"/>
	<path class="st2" d="M374.8,667.3c19.8,7,39.5,7,59.3,0c7.2,23.1,10.2,46.1-1.9,68.6c-18.5-1.8-37.1-2-55.6,0
		c-1.4-0.9-3.6-1.1-3.9-3.1C368.8,710.8,365.7,688.9,374.8,667.3z"/>
	<path class="st3" d="M374.8,667.3c0.6,22.9,1.2,45.7,1.8,68.6c-4.9,16.9,3.8,26.8,23,35.1c-8.3,0-11.6,1-13.7-0.2
		c-9.7-5.6-15.8-3-19.8,7.2c-1.2,3-3.3,6.5-7.6,5.8c-6-1-2.6-4.6-2.1-7.6c1.3-7.7-3.8-5.6-7.1-3.9c-6,3-11.6,2.7-19.3,0.3
		c12.9-11.4,42-5.7,33.5-34.6c-5.8-24.8-10.6-49.6,3.2-73.6C369.5,665.3,372.2,666.3,374.8,667.3z"/>
	<path class="st3" d="M432.3,735.9c0.6-22.9,1.2-45.8,1.9-68.6c2.7-1,5.3-2,8-3c2.6,1.4,5.2,3.3,5.5,6.2c2.6,22.6,6,45.3-2.3,67.5
		c-8.3,28.8,20.7,23.2,32.9,34c-7.1,3.7-12.8,2.8-18.7,0.2c-5-2.2-9.8-2.4-6.4,5.6c1,2.4,1.3,4.9-1.1,5.7c-1.8,0.6-5.8-0.3-6.1-1.4
		c-5.4-17.2-18.7-13.4-32.2-11.6C428.4,762.7,437.2,752.8,432.3,735.9z"/>
	<path class="st2" d="M366.8,664.3c-6.2,24.3-0.2,49.2-3.2,73.6c-12.8,4.1-18.2,1-17.3-13.9c1.4-22.8,0.7-45.7,0.9-68.6
		C353.7,658.4,360.3,661.3,366.8,664.3z"/>
	<path class="st2" d="M445.3,738c-3-24.5,2.9-49.4-3.2-73.7c6.6-3,13.1-5.9,19.7-8.9c0.2,22.9-0.5,45.8,0.9,68.6
		C463.5,738.9,458.1,742,445.3,738z"/>
	<path class="st4" d="M315.5,213.2c45.8-0.1,83.5,37.4,83,82.4c-0.6,44.8-37.5,81.5-82.2,81.6c-45.7,0.1-83.3-37.4-82.9-82.6
		C233.9,249.7,270.5,213.3,315.5,213.2z"/>
	<path class="st4" d="M493.4,213.2c45,0.2,81.6,36.5,82.1,81.5c0.5,45.1-37.3,82.7-82.9,82.6c-45.4-0.1-83-38.4-82.1-83.4
		C411.3,248.9,448.3,213,493.4,213.2z"/>
	<path class="st5" d="M420.2,502.7c-5.1,11.9-10.1,23.9-15.7,37.1c-5.5-13-10.7-25-15.8-37.1c-6.3-18.3,0.6,1.4-6.2-17.9
		c-9.6-27.2-18.7-54.5-29.2-81.4c-3.9-9.8-2.5-14.4,7.1-18.3c30-12.1,59.5-11.6,89.3,1c8.3,3.5,9.5,7.2,6.3,15.7
		c-10.5,27.4-19.9,55.3-29.7,83C420.2,502.7,426.4,484.8,420.2,502.7z"/>
	<path class="st6" d="M420.2,502.7c3.8-11.1,0-0.3,3.8-11.1c45.4-7.3,0,0,51-8.2c7.3-1.2,14.6-3.2,21.9-4.9
		c-4.1,4.6,0.4,9.5-0.6,14.2"/>
	<path class="st6" d="M384.8,491.3c3.9,11-0.1-0.2,3.9,11.4c-26.1,0.6-51.9-1.6-76.6-10.8c0.2-4.5,3.8-8.9-0.1-13.4
		c16.9,3.3,33.8,7.2,50.9,9.7C369.3,489.2,352.7,487,384.8,491.3z"/>
	<path class="st7" d="M375.8,295c0,29.6-23.8,53.2-53.1,52.7c-28.5-0.5-51.9-24.2-52-52.6c0-28.8,24.9-53.3,53.6-52.8
		C353.1,242.9,375.8,266.1,375.8,295z"/>
	<path class="st7" d="M433.1,295.9c-0.4-29.7,23-53.6,52.3-53.6c28.3,0.1,52.2,23.6,52.8,51.9c0.6,28.9-23.8,53.6-52.8,53.5
		C456.6,347.7,433.5,324.8,433.1,295.9z"/>
	<path class="st8" d="M336.2,254.5c13.1,0.5,26.1,13.8,25.3,25.7c-0.6,8.8-6.3,11.8-13.8,12.1c-12.6,0.4-26.5-13.3-26.2-25.1
		C321.7,257.5,327.3,254.1,336.2,254.5z"/>
	<path class="st9" d="M497,254.4c13.8,0.8,27.2,13.5,27,24.6c-0.2,9.4-6.3,13.3-14.8,13.3c-12.5,0-26.9-14.5-26.1-25.8
		C483.7,256.8,490.1,254.1,497,254.4z"/>
</g>
<g>
	<path d="M246.3,152.6c16.4-50,32.6-99.4,49.2-149.7c22.2,7.4,43.2,14.8,64.4,21.3c6.4,2,13.9,2.5,20.6,1.5
		c44.7-6.8,89.3-14.4,134-21.3c3.4-0.5,9.9,1.9,10.7,4.3c16.1,47.4,31.6,95.1,47.7,143.9C463.8,152.6,355.8,152.6,246.3,152.6z"/>
	<path d="M512.4,211.8c-40.3-10.3-78.9,9.4-97.6,49.7c-0.7,1.5-1.7,3-1,1.8c-8.1,0-15.7-0.1-23.3-0.1c0.2,7.4,0.1,14.8-0.3,22.3
		c2.9,0.5,5.8,1.1,8.8,1.9c7.4,1.9,9.6,5.5,9.8,13c1.2,44.7,37.1,80.3,81.2,81.1c45.2,0.8,82.2-32.9,85.5-78
		C578.6,261.1,551.5,221.7,512.4,211.8z M491.6,357.9c-34.3-0.3-62.2-28.2-62.3-62.3c-0.1-33.7,29.7-63.4,63.2-63.1
		c33.5,0.3,62.3,29.3,62.3,62.8C554.8,329.3,525.7,358.2,491.6,357.9z"/>
	<path d="M417.6,261.7c-3.1,0.1-6.2,0.1-9.3,0.3c-7.3,0.3-11.2-0.8-15-7.8c-18.8-34.6-55-51.4-93.3-44.4
		c-42.1,7.7-71.8,44.3-71,87.3c0.8,43.4,33.6,78.6,78.6,84.2c39.5,5,79.7-22,91-61.9c3-10.6,3.5-19,4.5-26.3c16.8,0.5,8.9-9.5,13-10
		C416.7,276.1,417.4,268.8,417.6,261.7z M316.1,359.6c-35.9,0.3-65.1-28.5-65.4-64.4c-0.3-34.7,30.1-65.3,65.1-65.4
		c36.5-0.1,64.5,27.8,64.7,64.6C380.7,330.6,352.3,359.3,316.1,359.6z"/>
	<path d="M151.1,190.1c146.8-81.3,360.4-82.8,507.9,0C489.7,190.1,321.3,190.1,151.1,190.1z"/>
</g>
<g>
	<path class="st10" d="M182.7,552.7c0.6-3.3,1.2-6.6,1.7-10c1.3-8.3,3-16.6,4.8-24.8c0.6-0.4,1-0.1,1.2,0.3c2.1,3.3,5.6,4.5,9,5.7
		c2.2,0.8,4.5,1.1,6.9,1.6c1.5,0.3,2.7-0.1,3.8-1.2c1.6-1.6,3.1-3.3,5-4.6c3.6-0.5,7.3-0.1,10.9-0.6c2.3-0.3,4.5-0.6,6.7-1.2
		c0.7-0.2,1.8-0.3,1.8-1.2c0-1.1-1.2-1.1-1.9-1.3c-2.3-0.6-4.6-1.1-7-1.2c-1.1,0-2.1-0.2-3.1-0.6c-0.7-0.4-0.5-1-0.1-1.4
		c1.7-1.8,3.1-3.8,5.4-4.9c3.6,0.6,7.2,1.3,10.6,2.9c1.4,0.6,2.7,1.3,3.8,2.3c1.7,1.4,2.6,3.2,2.4,5.4c-0.2,1.5-1.1,2.6-2.2,3.5
		c-3.4,2.7-7.5,3.8-11.6,4.8c-2.7,0.6-2.9,0.7-2.7,3.4c0.4,6.8,0.7,13.5,1.1,20.3c0.2,4.8,0.9,9.7,0.6,14.5c-0.7,9.8-6.4,16-15,20
		c-3.9,1.8-8.1,2.7-12.5,2.9c-1.9,0.1-3.7-0.2-5.4-1c-4.2-3-6.9-7.1-9.3-11.5c-2.1-3.9-3.7-8.1-4.3-12.6c0-0.2-0.2-0.3-0.4-0.5
		C182.7,558.7,182.7,555.7,182.7,552.7z"/>
	<path class="st11" d="M378.3,473.1C378.3,473.1,378.3,473,378.3,473.1c-2.4-6.9,0-0.1-2.4-6.7c0-0.1,0-0.2,0-0.3
		c-11.7,2.2-23,5.6-33.8,11c-17.6,8.8-34.1,19-49.1,31.7c-0.2,1,0.7,1.5,1.2,2.1c4.5,4.5,9,9.1,13.6,13.6c0.5,0.5,0.9,1.1,1.7,1.3
		c0.2,0,0.4,0,0.6-0.1c5-4.5,9.8-9.3,14.3-14.2c6.4-7,13.3-13.6,20.5-19.8c8.5-7.3,18.1-13,28.7-16.9c1.6-0.6,3.2-1,4.9-1.5
		C378.4,473.2,378.4,473.1,378.3,473.1z"/>
	<path class="st12" d="M379.8,476.9c-0.4-1,0.3,0.8-1.1-2.8c-0.1-0.4-0.3-0.8-0.3-1c0,0,0,0,0,0c0-0.1-0.1-0.1-0.1-0.2
		c-8.1,2.3-15.7,5.8-22.9,10.3c-7.4,4.6-13.9,10.3-20,16.3c-8.4,8.2-16.6,16.8-24.9,25.2c-0.2,0.3-0.4,0.6-0.7,0.8
		c-0.3,0.6,0,1,0.4,1.3c2.4,2.5,4.9,5,7.4,7.4c0.5,0.4,1,0.8,1.7,0.4c9.2-11.6,17.9-23.5,27.5-34.8c4.5-5.4,9.1-10.9,15.3-14.5
		c5.6-3.3,12-5.8,18-7.7C380,477.7,379.9,477.2,379.8,476.9z"/>
	<path class="st13" d="M196.7,586.2c4.6,0.7,9.1,0.4,13.5-0.9c7.4-2.3,13.5-6.1,16.9-13.3c2.1-4.5,2.2-9.2,1.7-14
		c-0.1-0.8-0.2-1.6-0.2-2.3c-0.3-7.2-0.5-14.4-0.9-21.6c-0.1-2.1-0.3-4.3-0.4-6.4c0-1,0.3-1.5,1.4-1.7c2.8-0.6,5.6-1.2,8.2-2.2
		c3.1-1.3,5.9-2.8,7.6-5.8c1.1,5.1,1.8,10.2,3.4,15.2c0.8,2.4,1.7,4.8,3.4,6.8c2.6,3.8,5.4,7.3,9,10.3c4.7,3.9,9.5,3.7,14.5,0.8
		c7.6-4.3,14.5-9.7,21.2-15.2c0.8-0.7,1.6-1.4,2.8-1.4c0.4,0,0.8,0.2,1.1,0.5c3.1,3,6.1,6,9.1,9c0.5,0.5,1.3,1,1,1.9
		c-7,8.6-13.8,17.3-21.6,25.2c-13.9,14-30.6,21.8-50.2,23.9c-8.6,0.9-17.2,1.6-25.8-0.5C206.6,592.9,201.2,590.4,196.7,586.2z"/>
	<path class="st14" d="M310.1,545.8c-3.4-3.5-6.8-7-10.2-10.6c-0.4-0.8,0.2-1.2,0.6-1.7c2.4-2.5,4.8-4.9,7.3-7.3
		c0.4-0.4,0.9-1,1.7-0.7c0.1,0,0.2,0,0.4,0c3.1,3.1,5.9,6.5,9.4,9.1C316.2,538.4,313.2,542.1,310.1,545.8z"/>
	<path class="st10" d="M299.1,534.6c-2.8,0.9-4.6,3.3-6.8,5c-5.6,4.4-11.3,8.7-17.6,12.1c-5,2.7-9.8,2.9-14.4-1.1
		c-3.6-3.1-7.1-6.2-8.9-10.8c1.7,1.4,3.4,0.6,5-0.2c3.5-1.8,6.4-4.5,9.4-7.1c5.6-4.9,11.1-9.8,16.6-14.7c0.9-0.1,1.4,0.6,1.9,1.1
		c4.6,4.6,9.2,9.2,13.8,13.8C298.5,533.2,299.3,533.7,299.1,534.6z"/>
	<path class="st15" d="M214.9,520.1c-1.6,2.3-3.9,3.9-5.8,5.9c-0.2,0.2-0.7,0.4-0.9,0.4c-5.7-1-11.3-2-16.2-5.4
		c-1.2-0.8-1.4-2.5-2.8-3.1c0.2-3.6,2.4-5.8,5.5-7.3c6.3-3.1,13.1-4,19.9-4.3c4.4-0.2,8.8-0.2,13.2,0.9c-1.9,2-3.7,4-5.6,6
		c-1,0.9-2.2,0.6-3.3,0.6c-5.6-0.1-11.2,0.1-16.6,1.4c-1,0.2-2.7,0.2-2.7,1.5c0,1.1,1.7,1.1,2.7,1.3c3.4,1,6.9,0.9,10.4,1.4
		C213.5,519.5,214.3,519.4,214.9,520.1z"/>
	<path class="st16" d="M299.1,534.6c-5.6-5.6-11.2-11.2-16.8-16.8c3.2-2.9,6.7-5.4,9.7-8.5c0.2-0.2,0.6-0.3,1-0.4
		c5,5.1,10,10.1,15,15.2c0.5,0.5,1,1,1.4,1.6c-3.4,3-6.6,6.1-9.6,9.6C299.6,535,299.3,534.8,299.1,534.6z"/>
	<path class="st17" d="M214.9,520.1c-4.6-0.2-9.2-0.4-13.7-1.7c-0.3-0.1-0.6-0.1-0.8-0.2c-0.8-0.4-2-0.6-2-1.7c0-1.1,1.2-1.4,2-1.6
		c4.3-1.3,8.8-1.7,13.3-1.8c2.9-0.1,5.7,0,8.6,0c3.6,0.5,7.4,0.5,10.9,1.7c0.5,0.2,1,0.3,1.4,0.5c0.6,0.3,1.3,0.6,1.2,1.3
		c0,0.7-0.7,1.1-1.3,1.3c-2.5,1-5.2,1.3-7.9,1.7C222.7,520.2,218.8,520,214.9,520.1z"/>
</g>
</svg>
